<svg width="80" height="117" viewBox="0 0 80 117" fill="none" xmlns="http://www.w3.org/2000/svg">
<path d="M0 22C0 15.3726 5.37258 10 12 10H68C74.6274 10 80 15.3726 80 22V78C80 84.6274 74.6274 90 68 90H12C5.37258 90 0 84.6274 0 78V22Z" fill="#F9F7F3"/>
<path d="M70.24 75.37C70.24 75.8133 70.0817 76.2883 69.765 76.795C69.4483 77.3017 69.005 77.555 68.435 77.555C68.1183 77.555 67.77 77.46 67.39 77.27C65.11 76.1933 62.45 75.3067 59.41 74.61C56.37 73.9767 53.235 73.4067 50.005 72.9C46.8383 72.3933 43.735 71.8233 40.695 71.19C37.655 70.62 34.995 69.86 32.715 68.91C33.095 69.7333 33.475 70.3983 33.855 70.905C34.235 71.4117 34.5517 71.855 34.805 72.235C35.1217 72.615 35.375 72.9633 35.565 73.28C35.755 73.66 35.85 74.135 35.85 74.705C35.85 75.2117 35.66 75.5917 35.28 75.845C34.9 76.0983 34.52 76.225 34.14 76.225C33.38 76.225 32.5567 75.75 31.67 74.8C30.8467 73.85 29.9917 72.6467 29.105 71.19C28.2183 69.7333 27.3317 68.1183 26.445 66.345C25.6217 64.5083 24.8617 62.735 24.165 61.025C23.4683 59.315 22.8667 57.7633 22.36 56.37C21.8533 54.9133 21.505 53.805 21.315 53.045L17.135 36.325C17.135 36.135 17.1667 35.8817 17.23 35.565C17.3567 35.2483 17.61 34.9317 17.99 34.615C17.7367 34.1083 17.61 33.57 17.61 33C17.61 31.2267 18.6233 29.6117 20.65 28.155C22.6767 26.635 25.115 25.3683 27.965 24.355C30.8783 23.2783 33.9183 22.455 37.085 21.885C40.2517 21.315 42.9433 21.03 45.16 21.03C45.7933 21.03 46.7433 21.0933 48.01 21.22C49.2767 21.2833 50.5117 21.505 51.715 21.885C52.9817 22.265 54.0583 22.8667 54.945 23.69C55.895 24.45 56.37 25.5267 56.37 26.92C56.37 28.25 55.6733 29.77 54.28 31.48C52.95 33.19 51.2717 34.995 49.245 36.895C47.2183 38.795 45.0333 40.7583 42.69 42.785C40.3467 44.7483 38.1617 46.7433 36.135 48.77C34.1083 50.7333 32.3983 52.665 31.005 54.565C29.675 56.4017 29.01 58.1117 29.01 59.695C29.01 60.8983 29.5167 61.975 30.53 62.925C31.6067 63.8117 32.9367 64.6033 34.52 65.3C36.1033 65.9967 37.8133 66.5983 39.65 67.105C41.55 67.6117 43.3233 68.0233 44.97 68.34C46.68 68.6567 48.1367 68.91 49.34 69.1C50.6067 69.2267 51.3667 69.29 51.62 69.29C52.4433 69.29 53.8683 69.385 55.895 69.575C57.9217 69.765 59.98 70.1133 62.07 70.62C64.2233 71.0633 66.1233 71.665 67.77 72.425C69.4167 73.185 70.24 74.1667 70.24 75.37ZM51.905 27.015C51.905 26.5717 51.6833 26.1917 51.24 25.875C50.7967 25.495 50.195 25.21 49.435 25.02C48.7383 24.7667 47.9467 24.6083 47.06 24.545C46.2367 24.4183 45.4133 24.355 44.59 24.355C43.3233 24.355 41.8033 24.545 40.03 24.925C38.2567 25.305 36.4517 25.78 34.615 26.35C32.8417 26.92 31.195 27.49 29.675 28.06C28.155 28.63 27.0467 29.105 26.35 29.485C25.02 30.245 23.7217 31.1 22.455 32.05C21.1883 32.9367 20.555 33.8233 20.555 34.71C20.555 34.8367 20.65 34.9633 20.84 35.09C21.03 35.2167 21.125 35.4383 21.125 35.755C21.125 36.135 21.315 37.1167 21.695 38.7C22.075 40.22 22.5183 41.9617 23.025 43.925C23.5317 45.825 24.07 47.725 24.64 49.625C25.2733 51.525 25.8433 53.045 26.35 54.185C28.9467 50.5117 31.7333 47.3133 34.71 44.59C37.75 41.8033 40.5367 39.365 43.07 37.275C45.6033 35.1217 47.6933 33.2533 49.34 31.67C51.05 30.0233 51.905 28.4717 51.905 27.015Z" fill="#DC8DB3"/>
</svg>
