<svg width="60" height="117" viewBox="0 0 60 117" fill="none" xmlns="http://www.w3.org/2000/svg">
<path d="M56.24 75.37C56.24 75.8133 56.0817 76.2883 55.765 76.795C55.4483 77.3017 55.005 77.555 54.435 77.555C54.1183 77.555 53.77 77.46 53.39 77.27C51.11 76.1933 48.45 75.3067 45.41 74.61C42.37 73.9767 39.235 73.4067 36.005 72.9C32.8383 72.3933 29.735 71.8233 26.695 71.19C23.655 70.62 20.995 69.86 18.715 68.91C19.095 69.7333 19.475 70.3983 19.855 70.905C20.235 71.4117 20.5517 71.855 20.805 72.235C21.1217 72.615 21.375 72.9633 21.565 73.28C21.755 73.66 21.85 74.135 21.85 74.705C21.85 75.2117 21.66 75.5917 21.28 75.845C20.9 76.0983 20.52 76.225 20.14 76.225C19.38 76.225 18.5567 75.75 17.67 74.8C16.8467 73.85 15.9917 72.6467 15.105 71.19C14.2183 69.7333 13.3317 68.1183 12.445 66.345C11.6217 64.5083 10.8617 62.735 10.165 61.025C9.46833 59.315 8.86667 57.7633 8.36 56.37C7.85333 54.9133 7.505 53.805 7.315 53.045L3.135 36.325C3.135 36.135 3.16667 35.8817 3.23 35.565C3.35667 35.2483 3.61 34.9317 3.99 34.615C3.73667 34.1083 3.61 33.57 3.61 33C3.61 31.2267 4.62333 29.6117 6.65 28.155C8.67667 26.635 11.115 25.3683 13.965 24.355C16.8783 23.2783 19.9183 22.455 23.085 21.885C26.2517 21.315 28.9433 21.03 31.16 21.03C31.7933 21.03 32.7433 21.0933 34.01 21.22C35.2767 21.2833 36.5117 21.505 37.715 21.885C38.9817 22.265 40.0583 22.8667 40.945 23.69C41.895 24.45 42.37 25.5267 42.37 26.92C42.37 28.25 41.6733 29.77 40.28 31.48C38.95 33.19 37.2717 34.995 35.245 36.895C33.2183 38.795 31.0333 40.7583 28.69 42.785C26.3467 44.7483 24.1617 46.7433 22.135 48.77C20.1083 50.7333 18.3983 52.665 17.005 54.565C15.675 56.4017 15.01 58.1117 15.01 59.695C15.01 60.8983 15.5167 61.975 16.53 62.925C17.6067 63.8117 18.9367 64.6033 20.52 65.3C22.1033 65.9967 23.8133 66.5983 25.65 67.105C27.55 67.6117 29.3233 68.0233 30.97 68.34C32.68 68.6567 34.1367 68.91 35.34 69.1C36.6067 69.2267 37.3667 69.29 37.62 69.29C38.4433 69.29 39.8683 69.385 41.895 69.575C43.9217 69.765 45.98 70.1133 48.07 70.62C50.2233 71.0633 52.1233 71.665 53.77 72.425C55.4167 73.185 56.24 74.1667 56.24 75.37ZM37.905 27.015C37.905 26.5717 37.6833 26.1917 37.24 25.875C36.7967 25.495 36.195 25.21 35.435 25.02C34.7383 24.7667 33.9467 24.6083 33.06 24.545C32.2367 24.4183 31.4133 24.355 30.59 24.355C29.3233 24.355 27.8033 24.545 26.03 24.925C24.2567 25.305 22.4517 25.78 20.615 26.35C18.8417 26.92 17.195 27.49 15.675 28.06C14.155 28.63 13.0467 29.105 12.35 29.485C11.02 30.245 9.72167 31.1 8.455 32.05C7.18833 32.9367 6.555 33.8233 6.555 34.71C6.555 34.8367 6.65 34.9633 6.84 35.09C7.03 35.2167 7.125 35.4383 7.125 35.755C7.125 36.135 7.315 37.1167 7.695 38.7C8.075 40.22 8.51833 41.9617 9.025 43.925C9.53167 45.825 10.07 47.725 10.64 49.625C11.2733 51.525 11.8433 53.045 12.35 54.185C14.9467 50.5117 17.7333 47.3133 20.71 44.59C23.75 41.8033 26.5367 39.365 29.07 37.275C31.6033 35.1217 33.6933 33.2533 35.34 31.67C37.05 30.0233 37.905 28.4717 37.905 27.015Z" fill="#DC8DB3"/>
</svg>
